<svg width="105" height="26" viewBox="0 0 105 26" fill="none" xmlns="http://www.w3.org/2000/svg">
<g clip-path="url(#clip0_37_27)">
<path d="M23.7955 4.25922L22.9362 17.9435L14.7214 0L23.7955 4.25922ZM18.1057 21.9538L11.8983 25.5461L5.69116 21.954L6.95359 18.8506H16.8431L18.1057 21.9538ZM11.8983 6.81138L15.151 14.8319H8.64565L11.8983 6.81138ZM0.85163 17.9435L0.00119019 4.25922L9.07528 0L0.85163 17.9435ZM97.692 20.7813V7.7869H100.62V9.95259H100.753C100.987 9.20254 101.389 8.62306 101.959 8.21413C102.529 7.8052 103.18 7.60074 103.914 7.60074C104.081 7.60074 104.269 7.60781 104.478 7.62195C104.686 7.6361 104.86 7.65724 104.999 7.68539V10.5025C104.871 10.4575 104.669 10.4166 104.394 10.3798C104.13 10.344 103.864 10.3256 103.598 10.3247C103.047 10.3247 102.554 10.4447 102.117 10.6845C101.68 10.9242 101.337 11.2554 101.087 11.6784C100.837 12.1014 100.712 12.5893 100.712 13.1421V20.7813H97.692ZM91.5568 7.61758C92.1741 7.61758 92.7887 7.69094 93.4005 7.83765C94.012 7.98436 94.5707 8.22543 95.0767 8.56086C95.5826 8.89644 95.99 9.35196 96.299 9.92742C96.6074 10.5026 96.7616 11.2216 96.7616 12.0844V20.7813H93.8592V18.9962H93.7591C93.5755 19.3573 93.3184 19.6943 92.9876 20.0073C92.6568 20.3204 92.2425 20.5714 91.7449 20.7603C91.2473 20.9491 90.6647 21.0436 89.9973 21.0436C89.1854 21.0436 88.4556 20.8955 87.8077 20.5995C87.1598 20.3034 86.6483 19.8649 86.2731 19.2839C85.8978 18.7032 85.7102 17.9869 85.7102 17.1352C85.7102 16.4021 85.8436 15.7958 86.1103 15.3163C86.3707 14.8436 86.7472 14.4472 87.2031 14.1656C87.6647 13.878 88.186 13.6595 88.767 13.51C89.3606 13.3582 89.9641 13.2493 90.5729 13.1843L90.9486 13.1441L91.384 13.0955C91.7535 13.053 92.0758 13.013 92.3509 12.9752L92.3997 12.9686C92.8667 12.9038 93.2073 12.8023 93.4214 12.6641C93.6353 12.526 93.7424 12.3102 93.7425 12.0168V11.966C93.7424 11.3287 93.5561 10.8353 93.1837 10.4857C92.811 10.1358 92.2744 9.96091 91.5739 9.96091C90.8342 9.96091 90.249 10.1245 89.818 10.4518C89.3871 10.779 89.0966 11.1654 88.9465 11.6108L86.1273 11.2048C86.3495 10.4152 86.7164 9.75388 87.2282 9.22085C87.7397 8.68781 88.3654 8.28734 89.105 8.01944C89.8442 7.75167 90.6616 7.61772 91.5571 7.61758M93.7507 14.5887C93.6562 14.6677 93.4964 14.741 93.2713 14.8086C93.023 14.8815 92.771 14.9408 92.5164 14.9862C92.2939 15.027 92.0733 15.064 91.8544 15.0973L91.6284 15.1305L90.9816 15.2231C90.5313 15.2852 90.1281 15.3868 89.7721 15.5278C89.4161 15.6688 89.1353 15.8649 88.9296 16.1158C88.724 16.3668 88.6211 16.6897 88.621 17.0845C88.621 17.6483 88.824 18.0741 89.2299 18.3618C89.6359 18.6494 90.1531 18.7932 90.7815 18.7932C91.3874 18.7932 91.9129 18.6706 92.3579 18.4253C92.8027 18.1798 93.1461 17.8542 93.3879 17.4483C93.6299 17.0421 93.7509 16.5994 93.7509 16.12L93.7507 14.5887ZM82.1848 20.7813H85.2043V3.4553H82.1848V20.7813ZM78.1766 15.3163V7.7869H81.1959V20.7813H78.2683V18.4719H78.1348C77.8456 19.1994 77.3716 19.7945 76.7126 20.2569C76.0536 20.7194 75.2432 20.9506 74.2813 20.9506C73.4417 20.9506 72.7007 20.7602 72.0583 20.3794C71.4158 19.9986 70.9141 19.4431 70.553 18.7129C70.1914 17.9826 70.0107 17.0986 70.0108 16.0609V7.78669H73.0301V15.5867C73.0301 16.4104 73.2525 17.0647 73.6974 17.5496C74.1423 18.0345 74.7261 18.277 75.4489 18.277C75.8937 18.277 76.3247 18.167 76.7419 17.9471C77.1589 17.7271 77.5023 17.3986 77.772 16.9616C78.0334 16.5375 78.1681 16.0089 78.176 15.3758L78.1766 15.3163ZM62.1989 7.61758C62.9495 7.61758 63.5681 7.74585 64.0549 8.00238C64.5413 8.25919 64.9292 8.56662 65.2184 8.92466C65.5075 9.28297 65.7271 9.61993 65.8773 9.93554H66.0441V7.7869H69.0217V20.9928C69.0217 22.104 68.7604 23.0233 68.2377 23.7509C67.7151 24.4785 67.0005 25.0227 66.0941 25.3837C65.1877 25.7446 64.159 25.9251 63.0082 25.9251C61.9236 25.9251 60.9921 25.7771 60.2138 25.481C59.4352 25.1847 58.8096 24.7885 58.337 24.2923C57.8645 23.7959 57.5365 23.2459 57.3529 22.6425L60.0721 21.9742C60.1942 22.2279 60.3721 22.4804 60.6059 22.7315C60.8394 22.9825 61.155 23.1912 61.5526 23.3576C61.9503 23.524 62.4521 23.6072 63.058 23.6072C63.9144 23.6072 64.6234 23.3971 65.185 22.9769C65.7466 22.5566 66.0275 21.8671 66.0275 20.9084V18.4465H65.8773C65.7215 18.7622 65.4949 19.0865 65.1975 19.4193C64.8999 19.7521 64.5079 20.0313 64.0214 20.2569C63.5347 20.4825 62.9244 20.5953 62.1905 20.5953C61.2062 20.5953 60.3151 20.3598 59.5174 19.8888C58.7193 19.418 58.0853 18.7131 57.6156 17.774C57.1457 16.835 56.9107 15.6575 56.9107 14.2418C56.9107 12.8149 57.1457 11.6094 57.6156 10.6253C58.0854 9.64115 58.7208 8.8938 59.5215 8.38323C60.3222 7.87266 61.2147 7.61745 62.1989 7.61758ZM63.033 10.1302C62.3602 10.1302 61.7986 10.3079 61.3481 10.6633C60.8978 11.0186 60.5586 11.505 60.3307 12.1227C60.1025 12.7401 59.9885 13.4409 59.9887 14.2249C59.9887 15.0202 60.104 15.7153 60.3348 16.3103C60.5656 16.9053 60.9075 17.3678 61.3606 17.6977C61.8137 18.0276 62.3711 18.1926 63.033 18.1927C63.6724 18.1927 64.2173 18.0348 64.6678 17.7189C65.1183 17.403 65.4603 16.949 65.6938 16.3569C65.9273 15.7645 66.0441 15.0539 66.0441 14.2249C66.0441 13.4072 65.9287 12.691 65.6981 12.0763C65.4672 11.4614 65.128 10.9834 64.6805 10.6421C64.2329 10.301 63.6837 10.1302 63.033 10.1302ZM48.1307 13.1676V20.7813H45.1114V7.7869H47.9976V9.99482H48.1475C48.4421 9.26737 48.9134 8.68934 49.5613 8.26072C50.209 7.8321 51.0112 7.61772 51.9678 7.61758C52.8518 7.61758 53.6234 7.80936 54.2825 8.19291C54.9412 8.57646 55.4527 9.13196 55.8171 9.85941C56.1722 10.5694 56.3516 11.4269 56.3552 12.432V20.7813H53.3357V12.9813C53.3357 12.1128 53.1146 11.4332 52.6725 10.9425C52.2303 10.4517 51.6201 10.2064 50.8418 10.2064C50.3136 10.2064 49.8451 10.3234 49.4362 10.5575C49.0274 10.7917 48.7077 11.1286 48.4771 11.5683C48.2539 11.9938 48.1386 12.506 48.1311 13.105L48.1307 13.1676ZM38.8503 3.4553L44.8723 20.7813H41.5694L40.1542 16.509H33.7317L32.3191 20.7813H29.016L35.0298 3.4553H38.8503ZM37.0071 7.00856H36.8734L34.5653 13.988H39.3189L37.0071 7.00856Z" fill="url(#paint0_linear_37_27)"/>
<path d="M18.1057 21.954L11.8983 25.5461L5.69116 21.954L6.95359 18.8506H16.8431L18.1057 21.954ZM11.8983 6.81117L15.151 14.8316H8.64565L11.8983 6.81117ZM0.85163 17.9435L0.00119019 4.25922L9.07528 0L0.85163 17.9435Z" fill="url(#paint1_linear_37_27)"/>
</g>
<defs>
<linearGradient id="paint0_linear_37_27" x1="0.00118488" y1="1246.09" x2="10413" y2="2227.04" gradientUnits="userSpaceOnUse">
<stop stop-color="#E847A3"/>
<stop offset="0.25687" stop-color="#DA5AF7"/>
<stop offset="0.33759" stop-color="#DD57F6"/>
<stop offset="0.56442" stop-color="#B848F4"/>
<stop offset="1" stop-color="#8842F6"/>
</linearGradient>
<linearGradient id="paint1_linear_37_27" x1="662.897" y1="1064.15" x2="543.497" y2="2549.85" gradientUnits="userSpaceOnUse">
<stop stop-color="#E03440" stop-opacity="0.2"/>
<stop offset="0.28023" stop-color="#E03440" stop-opacity="0.62"/>
<stop offset="1" stop-color="#E03440"/>
</linearGradient>
<clipPath id="clip0_37_27">
<rect width="105" height="26" fill="white"/>
</clipPath>
</defs>
</svg>
