<svg width="46" height="64" viewBox="0 0 46 64" fill="none" xmlns="http://www.w3.org/2000/svg">
<g clip-path="url(#clip0_37_16)">
<path d="M45.3086 12.5458L41.1883 58.7038L22.6673 63.8383L4.19741 58.7109L0.0813751 12.5458H45.3086Z" fill="#E44D26"/>
<path d="M22.695 59.9136L37.6609 55.7645L41.1818 16.3203H22.695V59.9136Z" fill="#F16529"/>
<path d="M14.6853 27.6444H22.695V21.9825H8.49747L8.63291 23.5015L10.0246 39.1043H22.695V33.4424H15.2028L14.6853 27.6444ZM15.9614 41.9354H10.2776L11.0708 50.8256L22.6689 54.0451L22.695 54.038V48.1471L22.6702 48.1537L16.3645 46.451L15.9614 41.9354Z" fill="#EBEBEB"/>
<path d="M4.28925 0H7.16659V2.84277H9.79874V0H12.6763V8.60862H9.79892V5.72596H7.16676V8.60862H4.28942L4.28925 0ZM16.4599 2.85483H13.9272V0H21.872V2.85483H19.3378V8.60862H16.4604V2.85483H16.4599ZM23.1329 0H26.1331L27.9786 3.02484L29.8224 0H32.8238V8.60862H29.9582V4.34172L27.9786 7.40255H27.929L25.9482 4.34172V8.60862H23.1329V0ZM34.2558 0H37.134V5.76319H41.1804V8.60862H34.2556L34.2558 0Z" fill="black"/>
<path d="M22.6755 39.1043H29.6476L28.9902 46.4475L22.6753 48.1519V54.0424L34.2827 50.8256L34.3678 49.8689L35.6985 34.9628L35.8366 33.4424H22.6755V39.1043ZM22.6755 27.6306V27.6444H36.3518L36.4653 26.3719L36.7234 23.5015L36.8587 21.9825H22.6755V27.6306Z" fill="white"/>
</g>
<defs>
<clipPath id="clip0_37_16">
<rect width="45.39" height="64" fill="white"/>
</clipPath>
</defs>
</svg>
