<svg width="64" height="64" viewBox="0 0 64 64" fill="none" xmlns="http://www.w3.org/2000/svg">
<path d="M52.4755 53.3333H11.5244C11.2973 53.3322 11.0798 53.2414 10.9192 53.0808C10.7586 52.9202 10.6678 52.7027 10.6667 52.4756V11.5244C10.6678 11.2973 10.7586 11.0798 10.9192 10.9192C11.0798 10.7586 11.2973 10.6678 11.5244 10.6667H52.4755C52.7027 10.6678 52.9202 10.7586 53.0808 10.9192C53.2414 11.0798 53.3322 11.2973 53.3333 11.5244V52.4756C53.3322 52.7027 53.2414 52.9202 53.0808 53.0808C52.9202 53.2414 52.7027 53.3322 52.4755 53.3333Z" fill="#FCEA2B"/>
<path d="M52.4755 53.3333H11.5244C11.2973 53.3322 11.0798 53.2414 10.9192 53.0808C10.7586 52.9202 10.6678 52.7027 10.6667 52.4756V11.5244C10.6678 11.2973 10.7586 11.0798 10.9192 10.9192C11.0798 10.7586 11.2973 10.6678 11.5244 10.6667H52.4755C52.7027 10.6678 52.9202 10.7586 53.0808 10.9192C53.2414 11.0798 53.3322 11.2973 53.3333 11.5244V52.4756C53.3322 52.7027 53.2414 52.9202 53.0808 53.0808C52.9202 53.2414 52.7027 53.3322 52.4755 53.3333Z" stroke="black" stroke-width="1.77778" stroke-linejoin="round"/>
<path d="M47.84 36.7467C47.4347 35.1671 45.6809 33.9822 43.5796 33.9822C41.1769 33.9822 39.2302 35.5316 39.2302 37.4453C39.2302 39.3573 41.1778 40.9085 43.5796 40.9085L43.4907 40.92C45.8933 40.92 47.84 42.4711 47.84 44.3831C47.84 46.2969 45.8924 47.8462 43.4907 47.8462C41.3893 47.8462 39.6356 46.6587 39.2302 45.08" stroke="black" stroke-width="3.95822" stroke-miterlimit="10" stroke-linecap="round" stroke-linejoin="round"/>
<path d="M32.6578 33.9822V42.8978C32.6583 43.8551 32.3812 44.792 31.8601 45.595C31.3389 46.398 30.5961 47.0327 29.7216 47.4221C28.847 47.8115 27.8783 47.9389 26.9329 47.7889C25.9874 47.6388 25.1057 47.2179 24.3947 46.5769" stroke="black" stroke-width="3.96089" stroke-miterlimit="10" stroke-linecap="round" stroke-linejoin="round"/>
</svg>
