<svg width="64" height="64" viewBox="0 0 64 64" fill="none" xmlns="http://www.w3.org/2000/svg">
<path d="M32 3.99999C27.8131 3.99232 23.6778 4.92373 19.8984 6.72564C16.1191 8.52756 12.792 11.1541 10.162 14.4119C7.53201 17.6698 5.66612 21.4759 4.70168 25.5503C3.73724 29.6246 3.69881 33.8633 4.58921 37.9545C5.4796 42.0456 7.27616 45.885 9.84664 49.19C12.4171 52.495 15.6961 55.1814 19.4421 57.0516C23.1881 58.9217 27.3059 59.928 31.4922 59.9962C35.6786 60.0645 39.827 59.193 43.632 57.446L24 28V46C24 46.5304 23.7893 47.0391 23.4142 47.4142C23.0391 47.7893 22.5304 48 22 48H18C17.4696 48 16.9609 47.7893 16.5858 47.4142C16.2107 47.0391 16 46.5304 16 46V18C16 17.4696 16.2107 16.9608 16.5858 16.5858C16.9609 16.2107 17.4696 16 18 16H22.868C23.2133 16.0003 23.5526 16.0899 23.853 16.2603C24.1534 16.4306 24.4045 16.6758 24.582 16.972L47.564 55.272C52.5551 51.9328 56.3404 47.0775 58.3613 41.4226C60.3821 35.7678 60.5314 29.613 58.7871 23.8668C57.0428 18.1207 53.4973 13.0875 48.674 9.51025C43.8507 5.933 38.0051 4.0012 32 3.99999ZM48 36H40V18C40 17.4696 40.2107 16.9608 40.5858 16.5858C40.9609 16.2107 41.4696 16 42 16H46C46.5304 16 47.0391 16.2107 47.4142 16.5858C47.7893 16.9608 48 17.4696 48 18V36Z" fill="#A3BAC5"/>
</svg>
