<svg width="64" height="64" viewBox="0 0 64 64" fill="none" xmlns="http://www.w3.org/2000/svg">
<path d="M32 48.2133C14.32 48.2133 0 40.96 0 32C0 23.04 14.32 15.7867 32 15.7867C49.68 15.7867 64 23.04 64 32C64 40.96 49.68 48.2133 32 48.2133ZM18.16 27.0133C19.6 27.0133 20.5867 27.28 21.0667 27.84C21.5467 28.3733 21.6533 29.3333 21.4133 30.5867C21.1467 32 20.64 32.9067 19.8667 33.4933C19.12 34.08 17.9733 34.3733 16.4267 34.3733H14.1067L15.52 27.0133H18.16ZM8.82667 41.8133H12.6667L13.5733 37.1467H16.8533C18.2933 37.1467 19.4667 36.9867 20.4 36.6933C21.3333 36.3733 22.1867 35.8667 22.96 35.1467C23.6 34.56 24.1067 33.92 24.5067 33.2C24.9067 32.5067 25.2 31.7067 25.3333 30.8533C25.76 28.7733 25.4667 27.1467 24.4533 26C23.4133 24.8267 21.8133 24.2667 19.6 24.2667H12.24L8.82667 41.8133ZM28.16 19.6L24.7467 37.1467H28.5333L30.5067 27.0933H33.5467C34.5067 27.0933 35.1467 27.2533 35.44 27.5733C35.7333 27.8933 35.7867 28.48 35.6267 29.3333L34.1067 37.1467H37.9733L39.5467 28.96C39.8933 27.3067 39.6267 26.1067 38.8267 25.3333C38.0267 24.6133 36.56 24.2667 34.4267 24.2667H31.04L32 19.6H28.16ZM48 27.0133C49.4667 27.0133 50.4267 27.28 50.9067 27.84C51.3867 28.3733 51.4933 29.3333 51.2533 30.5867C50.9867 32 50.48 32.9067 49.7333 33.4933C48.96 34.08 47.8133 34.3733 46.2667 34.3733H44L45.3333 27.0133H48ZM38.6667 41.8133H42.5067L43.4133 37.1467H46.6667C48.1333 37.1467 49.3333 36.9867 50.2667 36.6933C51.2 36.3733 52 35.8667 52.8 35.1467C53.44 34.56 53.9733 33.92 54.3467 33.2C54.7467 32.5067 55.04 31.7067 55.2 30.8533C55.6 28.7733 55.3067 27.1467 54.2933 26C53.3333 24.8267 51.6533 24.2667 49.44 24.2667H42.1067L38.6667 41.8133Z" fill="#1E88E5"/>
</svg>
