<svg width="64" height="64" viewBox="0 0 64 64" fill="none" xmlns="http://www.w3.org/2000/svg">
<path d="M32 24C46.888 24 56 29.18 56 32C56 34.82 46.888 40 32 40C17.112 40 8 34.82 8 32C8 29.18 17.112 24 32 24ZM32 20C16.536 20 4 25.372 4 32C4 38.628 16.536 44 32 44C47.464 44 60 38.628 60 32C60 25.372 47.464 20 32 20Z" fill="#0288D1"/>
<path d="M32 28C31.2089 28 30.4355 28.2346 29.7777 28.6741C29.1199 29.1136 28.6072 29.7384 28.3045 30.4693C28.0017 31.2002 27.9225 32.0044 28.0769 32.7804C28.2312 33.5563 28.6122 34.269 29.1716 34.8284C29.731 35.3878 30.4437 35.7688 31.2196 35.9231C31.9956 36.0775 32.7998 35.9983 33.5307 35.6955C34.2616 35.3928 34.8864 34.8801 35.3259 34.2223C35.7654 33.5645 36 32.7911 36 32C36 30.9391 35.5786 29.9217 34.8284 29.1716C34.0783 28.4214 33.0609 28 32 28Z" fill="#0288D1"/>
<path d="M20.916 11.014C24.95 11.014 32.79 17.368 38.928 28C46.372 40.894 46.442 51.374 44 52.784C43.7183 52.9301 43.403 52.9991 43.086 52.984C39.052 52.984 31.21 46.632 25.072 36C17.628 23.106 17.558 12.626 20 11.216C20.2823 11.0696 20.5984 10.9986 20.916 11.014ZM20.914 7.01601C19.8947 6.99756 18.8889 7.25091 18 7.75001C12.26 11.064 13.876 24.608 21.608 38C28.176 49.38 37.048 56.986 43.088 56.986C44.107 57.0029 45.1121 56.7482 46 56.248C51.74 52.936 50.124 39.392 42.392 26C35.824 14.62 26.952 7.01401 20.912 7.01401L20.914 7.01601Z" fill="#0288D1"/>
<path d="M43.086 11.014C43.403 10.9989 43.7183 11.0679 44 11.214C46.442 12.626 46.372 23.106 38.928 36C32.788 46.632 24.948 52.986 20.914 52.986C20.597 53.0011 20.2817 52.9321 20 52.786C17.558 51.372 17.628 40.892 25.072 28C31.212 17.368 39.052 11.014 43.086 11.014ZM43.086 7.014C37.046 7.014 28.176 14.622 21.606 26C13.878 39.392 12.26 52.936 18 56.248C18.8885 56.7485 19.8944 57.0032 20.914 56.986C26.954 56.986 35.824 49.378 42.394 38C50.122 24.608 51.74 11.064 46 7.752C45.1115 7.25151 44.1056 6.99678 43.086 7.014Z" fill="#0288D1"/>
</svg>
