<svg width="64" height="64" viewBox="0 0 64 64" fill="none" xmlns="http://www.w3.org/2000/svg">
<g clip-path="url(#clip0_37_35)">
<path d="M0.504 49.41C0.201 49.26 0 48.9065 0 48.504C0 47.8985 0.453 47.4455 1.0585 47.4455C1.26 47.4455 1.461 47.496 1.6135 47.5975C2.7205 48.3535 3.9315 48.705 4.9885 48.705C6.1485 48.705 6.8025 48.201 6.8025 47.445V47.395C6.8025 46.4885 5.5425 46.1855 4.1835 45.783C2.4685 45.2795 0.5545 44.5725 0.5545 42.3555V42.3045C0.5545 40.088 2.3695 38.7775 4.6875 38.7775C5.9475 38.7775 7.2075 39.131 8.365 39.7365C8.7185 39.9375 9.02 40.289 9.02 40.744C9.02 41.3475 8.5155 41.801 7.912 41.801C7.711 41.801 7.5585 41.752 7.357 41.6505C6.4005 41.1465 5.4435 40.8435 4.637 40.8435C3.578 40.8435 3.0235 41.3475 3.0235 42.0035V42.0525C3.0235 42.91 4.2835 43.2635 5.6445 43.717C7.3575 44.2205 9.2715 45.027 9.2715 47.094V47.1425C9.2715 49.6135 7.3575 50.8225 4.9395 50.8225C3.4765 50.8225 1.865 50.369 0.504 49.41ZM19.703 44.826C19.703 42.5565 18.1915 41.096 16.379 41.096C14.564 41.096 13.002 42.6075 13.002 44.826V44.875C13.002 47.094 14.5645 48.605 16.379 48.605C18.1915 48.504 19.703 47.094 19.703 44.826ZM10.4315 40.1385C10.4315 39.383 10.9865 38.7775 11.742 38.7775C11.9209 38.7768 12.0981 38.8116 12.2635 38.8798C12.4288 38.948 12.5791 39.0482 12.7055 39.1747C12.8319 39.3012 12.9321 39.4515 13.0001 39.617C13.0682 39.7824 13.1028 39.9596 13.102 40.1385V40.9455C13.959 39.7365 15.168 38.7775 17.033 38.7775C19.754 38.7775 22.426 40.9455 22.426 44.7755V44.826C22.426 48.6545 19.8045 50.8225 17.033 50.8225C15.117 50.8225 13.908 49.865 13.1015 48.8065V52.8885C13.1015 53.6445 12.498 54.199 11.742 54.199C11.5697 54.2001 11.3988 54.1669 11.2394 54.1014C11.08 54.036 10.9352 53.9395 10.8133 53.8177C10.6915 53.6958 10.595 53.551 10.5296 53.3916C10.4641 53.2322 10.4309 53.0613 10.432 52.889V40.139M23.533 40.088C23.533 39.332 24.088 38.7285 24.8435 38.7285C25.0224 38.7276 25.1996 38.7622 25.3651 38.8302C25.5305 38.8982 25.6809 38.9983 25.8074 39.1247C25.934 39.251 26.0343 39.4012 26.1025 39.5666C26.1708 39.7319 26.2056 39.9091 26.205 40.088V40.744C26.355 39.7365 27.969 38.7775 29.127 38.7775C29.9845 38.7775 30.4375 39.3325 30.4375 40.0875C30.4375 40.7925 29.9845 41.248 29.379 41.3475C27.465 41.701 26.154 43.3125 26.154 45.631V49.461C26.154 50.166 25.549 50.7715 24.793 50.7715C24.6207 50.7726 24.4499 50.7395 24.2905 50.674C24.1311 50.6085 23.9863 50.512 23.8645 50.3901C23.7428 50.2681 23.6465 50.1232 23.5812 49.9637C23.516 49.8042 23.4831 49.6333 23.4845 49.461V40.088M31.6465 40.088C31.6459 39.9091 31.6807 39.7319 31.749 39.5666C31.8172 39.4012 31.9175 39.251 32.0441 39.1247C32.1706 38.9983 32.321 38.8982 32.4864 38.8302C32.6519 38.7622 32.8291 38.7276 33.008 38.7285C33.1868 38.7277 33.364 38.7623 33.5294 38.8303C33.6948 38.8984 33.8451 38.9985 33.9716 39.1248C34.0981 39.2512 34.1984 39.4014 34.2666 39.5667C34.3348 39.732 34.3696 39.9092 34.369 40.088V49.461C34.369 50.217 33.764 50.7715 33.008 50.7715C32.252 50.7715 31.6465 50.2165 31.6465 49.461V40.088ZM35.5275 40.1385C35.5267 39.9596 35.5614 39.7822 35.6295 39.6167C35.6976 39.4513 35.7978 39.3009 35.9244 39.1744C36.0509 39.0478 36.2012 38.9476 36.3667 38.8795C36.5322 38.8114 36.7095 38.7767 36.8885 38.7775C37.6445 38.7775 38.2985 39.3825 38.2985 40.1385V40.6935C39.0545 39.635 40.215 38.7775 42.0785 38.7775C44.801 38.7775 46.3615 40.541 46.3615 43.2125V49.461C46.3615 50.217 45.758 50.7715 45.0015 50.7715C44.2465 50.7715 43.59 50.2165 43.59 49.461V44.0195C43.59 42.205 42.633 41.1975 41.02 41.1975C39.408 41.1975 38.299 42.256 38.299 44.0685V49.461C38.299 50.217 37.6955 50.7715 36.889 50.7715C36.133 50.7715 35.5275 50.2165 35.5275 49.461V40.1385ZM53.3165 48.5545C51.4515 48.5545 49.8905 47.1425 49.8905 44.826V44.7755C49.8905 42.508 51.451 41.045 53.3165 41.045C55.1815 41.045 56.793 42.5565 56.793 44.775V44.826C56.793 47.043 55.1815 48.5545 53.3165 48.5545ZM58.1035 38.828C57.9246 38.8274 57.7474 38.8622 57.5821 38.9305C57.4167 38.9987 57.2665 39.099 57.1402 39.2256C57.0138 39.3521 56.9137 39.5025 56.8457 39.6679C56.7777 39.8334 56.7431 40.0106 56.744 40.1895V40.996C55.836 39.785 54.627 38.828 52.662 38.828C49.84 38.828 47.117 40.996 47.117 44.875V44.926C47.117 48.756 49.84 50.9725 52.662 50.9725C54.627 50.9725 55.887 50.0155 56.744 48.9575C56.592 51.074 55.2815 52.1325 52.963 52.1325C51.6035 52.1325 50.3945 51.7795 49.285 51.2245C49.135 51.174 48.9825 51.125 48.7815 51.125C48.1265 51.125 47.6215 51.629 47.6215 52.2325C47.6215 52.7365 47.924 53.09 48.379 53.291C49.84 53.996 51.301 54.3495 53.014 54.3495C55.1815 54.3495 56.844 53.8455 57.953 52.787C58.961 51.83 59.5155 50.369 59.5155 48.402V40.139C59.465 39.3835 58.8595 38.829 58.1035 38.829M34.369 35.553C34.369 36.258 33.764 36.864 33.008 36.864C32.252 36.864 31.6465 36.2585 31.6465 35.553C31.6465 34.8475 32.2515 34.243 33.008 34.243C33.7635 34.243 34.369 34.848 34.369 35.553ZM41.424 26.8345C38.451 30.766 32.051 29.4555 27.918 29.606C27.918 29.606 27.213 29.657 26.457 29.7585C26.457 29.7585 26.76 29.657 27.0605 29.5065C29.9335 28.5495 31.295 28.3465 33.0585 27.44C36.334 25.778 39.6095 22.2 40.2635 18.4695C39.0035 22.0475 35.2245 25.1215 31.7485 26.3815C29.3785 27.239 25.0955 28.0455 25.0955 28.0455L24.9455 27.944C22.0215 26.5825 21.922 20.3855 27.2635 18.4185C29.582 17.563 31.7985 18.016 34.3185 17.4615C36.9885 16.858 40.1135 14.8915 41.3735 12.321C42.785 16.5045 44.499 22.905 41.424 26.8345ZM41.4745 11.112C41.1279 11.9011 40.6881 12.6459 40.1645 13.3305C37.9475 11.112 34.873 9.7525 31.4455 9.7525C24.744 9.7525 19.3005 15.094 19.3005 21.594C19.3005 25.02 20.8125 28.094 23.1815 30.262L23.4335 30.514C22.9805 30.1605 22.9295 29.5065 23.2815 29.102C23.635 28.649 24.289 28.598 24.744 28.952C25.1975 29.305 25.248 29.9595 24.8945 30.362C24.541 30.817 23.8865 30.8655 23.4335 30.514L23.635 30.6645C25.843 32.4574 28.6007 33.436 31.445 33.436C37.8455 33.436 43.086 28.5495 43.541 22.4515C43.9435 19.477 43.037 15.647 41.4745 11.1115M62.6895 39.6355H62.2365V40.2405H62.6895C62.842 40.2405 62.992 40.139 62.992 39.938C62.992 39.737 62.842 39.6355 62.6895 39.6355ZM62.9415 41.147L62.4885 40.442H62.1855V41.147H61.9335V39.434H62.6385C62.9415 39.434 63.1935 39.6355 63.1935 39.938C63.1981 40.0644 63.1533 40.1877 63.0687 40.2817C62.9841 40.3758 62.8662 40.4333 62.74 40.442L63.1935 41.147H62.9415ZM62.539 38.981C61.834 38.981 61.2285 39.5335 61.2285 40.241C61.2285 40.946 61.834 41.5005 62.539 41.5005C63.244 41.5005 63.8495 40.9455 63.8495 40.2405C63.8495 39.5845 63.2445 38.9805 62.5395 38.9805L62.539 38.981ZM62.539 41.801C61.6815 41.801 60.9765 41.147 60.9765 40.2895C60.9765 39.4345 61.6815 38.778 62.539 38.778C63.3945 38.778 64.1015 39.434 64.1015 40.2895C64.1015 41.096 63.3945 41.801 62.539 41.801Z" fill="#5FB832"/>
</g>
<defs>
<clipPath id="clip0_37_35">
<rect width="64" height="64" fill="white"/>
</clipPath>
</defs>
</svg>
