<svg width="64" height="64" viewBox="0 0 64 64" fill="none" xmlns="http://www.w3.org/2000/svg">
<path d="M17.124 30.512C21.9005 32.189 26.9387 32.9971 32 32.898C37.0615 32.9964 42.0997 32.1877 46.876 30.51C50.604 29.056 51.926 27.44 51.926 26.51V19.4C50.6223 20.2722 49.224 20.9941 47.758 21.552C42.7048 23.3611 37.3666 24.2432 32 24.156C26.634 24.2402 21.2965 23.3595 16.242 21.556C14.7751 20.9984 13.3767 20.2751 12.074 19.4V26.5C12.074 27.448 13.4 29.056 17.124 30.512ZM17.124 43.922C18.8112 44.5655 20.551 45.0614 22.324 45.404C25.5123 46.0195 28.7529 46.3229 32 46.31C35.247 46.3236 38.4877 46.0208 41.676 45.406C43.449 45.0634 45.1888 44.5675 46.876 43.924C50.604 42.47 51.926 40.854 51.926 39.924V33.144C50.8487 33.7923 49.7163 34.3445 48.542 34.794C43.2334 36.6731 37.6304 37.5829 32 37.48C26.369 37.5797 20.7659 36.6665 15.458 34.784C14.2849 34.3317 13.1528 33.7797 12.074 33.134V39.92C12.074 40.852 13.4 42.462 17.124 43.922ZM32 60C43 60 51.926 56.512 51.926 52.212V46.538C50.9459 47.1288 49.9191 47.6385 48.856 48.062L48.542 48.188C43.2344 50.0725 37.6314 50.9878 32 50.89C26.3683 50.9921 20.7645 50.0768 15.458 48.188L15.144 48.062C14.0809 47.6385 13.0541 47.1288 12.074 46.538V52.212C12.074 56.512 21 60 32 60Z" fill="#FFDA44"/>
<path d="M32 19.576C43.0048 19.576 51.926 16.0892 51.926 11.788C51.926 7.48681 43.0048 4 32 4C20.9952 4 12.074 7.48681 12.074 11.788C12.074 16.0892 20.9952 19.576 32 19.576Z" fill="#FFDA44"/>
</svg>
