<svg width="64" height="64" viewBox="0 0 64 64" fill="none" xmlns="http://www.w3.org/2000/svg">
<g clip-path="url(#clip0_57_3)">
<path d="M64 32C64 49.678 49.678 64 32 64C14.322 64 0 49.678 0 32C0 14.322 14.322 0 32 0C49.678 0 64 14.322 64 32ZM45.99 11.834C42.74 11.946 39.908 13.738 37.792 16.218C35.448 18.938 33.896 22.164 32.77 25.448C30.77 23.814 29.228 21.678 26.01 20.75C24.7395 20.3615 23.3942 20.2838 22.0874 20.5232C20.7805 20.7627 19.5503 21.3123 18.5 22.126C17.4102 22.9787 16.6093 24.1463 16.206 25.47C15.248 28.606 17.228 31.406 18.124 32.406L20.092 34.51C20.49 34.918 21.478 36 20.988 37.542C20.478 39.23 18.458 40.312 16.374 39.678C15.446 39.396 14.112 38.7 14.414 37.728C14.54 37.322 14.822 37.032 14.976 36.688C15.112 36.394 15.184 36.166 15.226 36.042C15.602 34.802 15.09 33.186 13.756 32.78C12.516 32.394 11.258 32.698 10.756 34.29C10.204 36.104 11.068 39.386 15.716 40.824C21.164 42.49 25.756 39.53 26.412 35.666C26.82 33.25 25.724 31.448 23.724 29.146L22.09 27.332C21.1 26.354 20.768 24.666 21.788 23.374C22.652 22.278 23.882 21.822 25.892 22.364C28.838 23.166 30.142 25.196 32.33 26.842C31.424 29.802 30.828 32.77 30.298 35.436L29.976 37.426C28.414 45.612 27.226 50.114 24.122 52.698C23.496 53.136 22.602 53.802 21.268 53.852C20.558 53.862 20.318 53.386 20.318 53.166C20.296 52.676 20.716 52.446 20.996 52.228C21.402 52.01 22.038 51.622 21.986 50.426C21.944 49.01 20.768 47.78 19.068 47.834C17.798 47.874 15.86 49.072 15.934 51.26C16.006 53.53 18.12 55.228 21.296 55.114C23.006 55.06 26.798 54.364 30.536 49.916C34.89 44.822 36.11 38.978 37.026 34.698L38.048 29.06C38.618 29.124 39.224 29.166 39.89 29.186C45.306 29.3 48.016 26.49 48.056 24.448C48.088 23.208 47.246 21.99 46.078 22.022C45.5761 22.0347 45.0924 22.2133 44.7027 22.5299C44.313 22.8465 44.0392 23.2833 43.924 23.772C43.674 24.908 45.652 25.94 44.11 26.94C43.016 27.646 41.048 28.148 38.286 27.74L38.788 24.958C39.82 19.688 41.078 13.208 45.882 13.054C46.236 13.032 47.516 13.062 47.538 13.908C47.548 14.188 47.488 14.274 47.154 14.908C46.8432 15.3213 46.6849 15.8293 46.706 16.346C46.746 17.69 47.768 18.576 49.258 18.522C51.236 18.46 51.8 16.522 51.778 15.532C51.696 13.198 49.236 11.74 45.986 11.836L45.99 11.834Z" fill="#CCCCCC"/>
</g>
<defs>
<clipPath id="clip0_57_3">
<rect width="64" height="64" fill="white"/>
</clipPath>
</defs>
</svg>
